<svg data-v-0dd9719b="" version="1.0" xmlns="http://www.w3.org/2000/svg" xmlns:xlink="http://www.w3.org/1999/xlink" width="100%" height="100%" viewBox="0 0 340.000000 250.000000" preserveAspectRatio="xMidYMid meet" color-interpolation-filters="sRGB" style="margin: auto;"> <rect data-v-0dd9719b="" x="0" y="0" width="100%" height="100%" fill="#000000" fill-opacity="1" class="background"></rect> <!----> <g data-v-0dd9719b="" fill="#00FF00" class="basesvg" transform="translate(35.59053051233292,102.24838733673096)"><g fill-rule="" class="tp-name"><g transform="scale(0.48999999999999955)"><g><g stroke="url(#text-effect-reflect-s4c2QFyukhZMoY8ud1qVZ)" stroke-width="1.1" paint-order="stroke" fill-opacity="0" transform="translate(0, -32.6)"><path d="M69.75-23.456000000000003Q80.22-36.592000000000006 80.22-55.391999999999996 80.22-55.391999999999996 80.22-55.391999999999996 80.22-74.592 70.14-86.256 70.14-86.256 70.14-86.256 59.87-98.84800000000001 42.36-99.36000000000001 42.36-99.36000000000001 42.36-99.36000000000001 24.85-99.888 14.67-86.54400000000001 14.67-86.54400000000001 14.67-86.54400000000001 3.91-72.688 3.91-50.656000000000006 3.91-50.656000000000006 3.91-50.656000000000006 3.91-28.448000000000004 14.38-15.968000000000002 14.38-15.968000000000002 14.38-15.968000000000002 24.55-4.192 41.97-7.088 41.97-7.088 41.97-7.088 59.28-9.872 69.75-23.456000000000003 69.75-23.456000000000003 69.75-23.456000000000003 69.75-23.456000000000003 69.75-23.456000000000003M52.53-67.16799999999999Q56.35-62.720000000000006 56.35-54 56.35-54 56.35-54 56.35-45.968 52.53-40.368 52.53-40.368 52.53-40.368 48.33-34.608 42.16-33.968 42.16-33.968 42.16-33.968 36.39-33.36000000000001 31.89-38.44800000000001 31.89-38.44800000000001 31.89-38.44800000000001 27.98-43.088 27.98-52.224000000000004 27.98-52.224000000000004 27.98-52.224000000000004 27.98-61.504 31.89-66.512 31.89-66.512 31.89-66.512 36-72.288 42.16-72.4 42.16-72.4 42.16-72.4 48.72-72.54400000000001 52.53-67.16799999999999 52.53-67.16799999999999 52.53-67.16799999999999 52.53-67.16799999999999 52.53-67.16799999999999M153.88-32.448Q164.35-43.328 164.35-59.29600000000001 164.35-59.29600000000001 164.35-59.29600000000001 164.35-75.584 154.27-85.488 154.27-85.488 154.27-85.488 144-96.736 126.49-97.12 126.49-97.12 126.49-97.12 108.98-97.536 98.8-85.712 98.8-85.712 98.8-85.712 88.04-74.192 88.04-55.824000000000005 88.04-55.824000000000005 88.04-55.824000000000005 88.04-37.344 98.51-26.927999999999997 98.51-26.927999999999997 98.51-26.927999999999997 108.68-17.056 126.1-19.248 126.1-19.248 126.1-19.248 143.41-21.248 153.88-32.448 153.88-32.448 153.88-32.448 153.88-32.448 153.88-32.448M136.66-69.456Q140.47-65.69600000000001 140.47-58.367999999999995 140.47-58.367999999999995 140.47-58.367999999999995 140.47-51.616 136.66-46.976 136.66-46.976 136.66-46.976 132.46-42.19200000000001 126.29-41.728 126.29-41.728 126.29-41.728 120.52-41.28 116.02-45.568000000000005 116.02-45.568000000000005 116.02-45.568000000000005 112.11-49.456 112.11-57.088 112.11-57.088 112.11-57.088 112.11-64.816 116.02-68.976 116.02-68.976 116.02-68.976 120.13-73.792 126.29-73.872 126.29-73.872 126.29-73.872 132.85-73.968 136.66-69.456 136.66-69.456 136.66-69.456 136.66-69.456 136.66-69.456M238.01-37.136Q248.48-46.56 248.48-61.152 248.48-61.152 248.48-61.152 248.48-76.048 238.4-85.056 238.4-85.056 238.4-85.056 228.13-95.52000000000001 210.62-95.68 210.62-95.68 210.62-95.68 193.11-95.904 182.93-85.072 182.93-85.072 182.93-85.072 172.17-75.216 172.17-59.568 172.17-59.568 172.17-59.568 172.17-43.792 182.64-34.592000000000006 182.64-34.592000000000006 182.64-34.592000000000006 192.82-25.695999999999998 210.23-26.784 210.23-26.784 210.23-26.784 227.54-27.632 238.01-37.136 238.01-37.136 238.01-37.136 238.01-37.136 238.01-37.136M220.79-70.768Q224.61-67.376 224.61-60.848000000000006 224.61-60.848000000000006 224.61-60.848000000000006 224.61-54.848000000000006 220.79-50.816 220.79-50.816 220.79-50.816 216.59-46.72 210.42-46.512 210.42-46.512 210.42-46.512 204.65-46.304 200.15-50.176 200.15-50.176 200.15-50.176 196.24-53.648 196.24-60.256 196.24-60.256 196.24-60.256 196.24-66.976 200.15-70.54400000000001 200.15-70.54400000000001 200.15-70.54400000000001 204.26-74.704 210.42-74.752 210.42-74.752 210.42-74.752 216.98-74.784 220.79-70.768 220.79-70.768 220.79-70.768 220.79-70.768 220.79-70.768M322.14-36.784Q332.61-45.776 332.61-60.704 332.61-60.704 332.61-60.704 332.61-75.936 322.52-85.08800000000001 322.52-85.08800000000001 322.52-85.08800000000001 312.26-95.456 294.75-95.376 294.75-95.376 294.75-95.376 277.24-95.328 267.07-84.80000000000001 267.07-84.80000000000001 267.07-84.80000000000001 256.3-75.64800000000001 256.3-61.216 256.3-61.216 256.3-61.216 256.3-46.656000000000006 266.77-37.6 266.77-37.6 266.77-37.6 276.95-28.592000000000002 294.36-28.416000000000004 294.36-28.416000000000004 294.36-28.416000000000004 311.67-27.983999999999998 322.14-36.784 322.14-36.784 322.14-36.784 322.14-36.784 322.14-36.784M304.92-70.928Q308.74-67.52000000000001 308.74-61.072 308.74-61.072 308.74-61.072 308.74-55.120000000000005 304.92-51.29600000000001 304.92-51.29600000000001 304.92-51.29600000000001 300.72-47.456 294.55-47.536 294.55-47.536 294.55-47.536 288.77-47.6 284.27-51.504 284.27-51.504 284.27-51.504 280.37-54.96000000000001 280.37-61.264 280.37-61.264 280.37-61.264 280.37-67.64800000000001 284.27-70.992 284.27-70.992 284.27-70.992 288.39-74.944 294.55-74.928 294.55-74.928 294.55-74.928 301.11-74.912 304.92-70.928 304.92-70.928 304.92-70.928 304.92-70.928 304.92-70.928M340.43-28.768Q351.58-28.096 362.74-27.328 362.74-59.98400000000001 362.64-63.00800000000001 362.64-63.00800000000001 362.64-63.00800000000001 371.25-44.736000000000004 379.86-25.968000000000004 392.57-24.816000000000003 405.29-23.536 405.29-58.416 405.29-93.74400000000001 394.19-93.52000000000001 383.09-93.328 383.09-82.176 383.33-73.152 383.58-64.096 383.87-60.752 383.87-60.752 383.87-60.752 382.3-63.68 380.45-67.74400000000001 380.45-67.74400000000001 380.45-67.74400000000001 373.21-82.816 367.43-93.072 367.43-93.072 367.43-93.072 353.93-92.89600000000002 340.43-92.72000000000001 340.43-60.48 340.43-28.768 340.43-28.768 340.43-28.768M413.12-22.944000000000003Q439.43-19.840000000000003 465.75-16.32 465.75-26.192000000000004 465.75-36.064 451.22-37.44 436.7-38.752 436.7-66.416 436.7-94.43200000000002 424.91-94.16000000000001 413.12-93.904 413.12-58.208000000000006 413.12-22.944000000000003 413.12-22.944000000000003 413.12-22.944000000000003M500.77-10.864Q513-8.928 525.23-6.96 525.23-24.080000000000002 525.23-41.2 538.87-68.57600000000001 552.52-97.616 539.9-97.248 527.28-96.864 520.24-80.368 513.2-64.44800000000001 511.43-68.848 509.48-74.368 509.48-74.368 509.48-74.368 504.2-88.94400000000002 500.58-96.096 500.58-96.096 500.58-96.096 487.08-95.72800000000001 473.58-95.36000000000001 487.17-69.968 500.77-43.312000000000005 500.77-27.088 500.77-10.864 500.77-10.864 500.77-10.864" transform="translate(-3.9100000858306885, 99.38009643554688)"></path></g><g stroke="url(#text-effect-reflect-E7IPlF4iiKuaN9WJkA1CR)" stroke-width="1.1" paint-order="stroke" fill-opacity="0" transform="translate(0, 32.6)"><path d="M69.75-23.456000000000003Q80.22-36.592000000000006 80.22-55.391999999999996 80.22-55.391999999999996 80.22-55.391999999999996 80.22-74.592 70.14-86.256 70.14-86.256 70.14-86.256 59.87-98.84800000000001 42.36-99.36000000000001 42.36-99.36000000000001 42.36-99.36000000000001 24.85-99.888 14.67-86.54400000000001 14.67-86.54400000000001 14.67-86.54400000000001 3.91-72.688 3.91-50.656000000000006 3.91-50.656000000000006 3.91-50.656000000000006 3.91-28.448000000000004 14.38-15.968000000000002 14.38-15.968000000000002 14.38-15.968000000000002 24.55-4.192 41.97-7.088 41.97-7.088 41.97-7.088 59.28-9.872 69.75-23.456000000000003 69.75-23.456000000000003 69.75-23.456000000000003 69.75-23.456000000000003 69.75-23.456000000000003M52.53-67.16799999999999Q56.35-62.720000000000006 56.35-54 56.35-54 56.35-54 56.35-45.968 52.53-40.368 52.53-40.368 52.53-40.368 48.33-34.608 42.16-33.968 42.16-33.968 42.16-33.968 36.39-33.36000000000001 31.89-38.44800000000001 31.89-38.44800000000001 31.89-38.44800000000001 27.98-43.088 27.98-52.224000000000004 27.98-52.224000000000004 27.98-52.224000000000004 27.98-61.504 31.89-66.512 31.89-66.512 31.89-66.512 36-72.288 42.16-72.4 42.16-72.4 42.16-72.4 48.72-72.54400000000001 52.53-67.16799999999999 52.53-67.16799999999999 52.53-67.16799999999999 52.53-67.16799999999999 52.53-67.16799999999999M153.88-32.448Q164.35-43.328 164.35-59.29600000000001 164.35-59.29600000000001 164.35-59.29600000000001 164.35-75.584 154.27-85.488 154.27-85.488 154.27-85.488 144-96.736 126.49-97.12 126.49-97.12 126.49-97.12 108.98-97.536 98.8-85.712 98.8-85.712 98.8-85.712 88.04-74.192 88.04-55.824000000000005 88.04-55.824000000000005 88.04-55.824000000000005 88.04-37.344 98.51-26.927999999999997 98.51-26.927999999999997 98.51-26.927999999999997 108.68-17.056 126.1-19.248 126.1-19.248 126.1-19.248 143.41-21.248 153.88-32.448 153.88-32.448 153.88-32.448 153.88-32.448 153.88-32.448M136.66-69.456Q140.47-65.69600000000001 140.47-58.367999999999995 140.47-58.367999999999995 140.47-58.367999999999995 140.47-51.616 136.66-46.976 136.66-46.976 136.66-46.976 132.46-42.19200000000001 126.29-41.728 126.29-41.728 126.29-41.728 120.52-41.28 116.02-45.568000000000005 116.02-45.568000000000005 116.02-45.568000000000005 112.11-49.456 112.11-57.088 112.11-57.088 112.11-57.088 112.11-64.816 116.02-68.976 116.02-68.976 116.02-68.976 120.13-73.792 126.29-73.872 126.29-73.872 126.29-73.872 132.85-73.968 136.66-69.456 136.66-69.456 136.66-69.456 136.66-69.456 136.66-69.456M238.01-37.136Q248.48-46.56 248.48-61.152 248.48-61.152 248.48-61.152 248.48-76.048 238.4-85.056 238.4-85.056 238.4-85.056 228.13-95.52000000000001 210.62-95.68 210.62-95.68 210.62-95.68 193.11-95.904 182.93-85.072 182.93-85.072 182.93-85.072 172.17-75.216 172.17-59.568 172.17-59.568 172.17-59.568 172.17-43.792 182.64-34.592000000000006 182.64-34.592000000000006 182.64-34.592000000000006 192.82-25.695999999999998 210.23-26.784 210.23-26.784 210.23-26.784 227.54-27.632 238.01-37.136 238.01-37.136 238.01-37.136 238.01-37.136 238.01-37.136M220.79-70.768Q224.61-67.376 224.61-60.848000000000006 224.61-60.848000000000006 224.61-60.848000000000006 224.61-54.848000000000006 220.79-50.816 220.79-50.816 220.79-50.816 216.59-46.72 210.42-46.512 210.42-46.512 210.42-46.512 204.65-46.304 200.15-50.176 200.15-50.176 200.15-50.176 196.24-53.648 196.24-60.256 196.24-60.256 196.24-60.256 196.24-66.976 200.15-70.54400000000001 200.15-70.54400000000001 200.15-70.54400000000001 204.26-74.704 210.42-74.752 210.42-74.752 210.42-74.752 216.98-74.784 220.79-70.768 220.79-70.768 220.79-70.768 220.79-70.768 220.79-70.768M322.14-36.784Q332.61-45.776 332.61-60.704 332.61-60.704 332.61-60.704 332.61-75.936 322.52-85.08800000000001 322.52-85.08800000000001 322.52-85.08800000000001 312.26-95.456 294.75-95.376 294.75-95.376 294.75-95.376 277.24-95.328 267.07-84.80000000000001 267.07-84.80000000000001 267.07-84.80000000000001 256.3-75.64800000000001 256.3-61.216 256.3-61.216 256.3-61.216 256.3-46.656000000000006 266.77-37.6 266.77-37.6 266.77-37.6 276.95-28.592000000000002 294.36-28.416000000000004 294.36-28.416000000000004 294.36-28.416000000000004 311.67-27.983999999999998 322.14-36.784 322.14-36.784 322.14-36.784 322.14-36.784 322.14-36.784M304.92-70.928Q308.74-67.52000000000001 308.74-61.072 308.74-61.072 308.74-61.072 308.74-55.120000000000005 304.92-51.29600000000001 304.92-51.29600000000001 304.92-51.29600000000001 300.72-47.456 294.55-47.536 294.55-47.536 294.55-47.536 288.77-47.6 284.27-51.504 284.27-51.504 284.27-51.504 280.37-54.96000000000001 280.37-61.264 280.37-61.264 280.37-61.264 280.37-67.64800000000001 284.27-70.992 284.27-70.992 284.27-70.992 288.39-74.944 294.55-74.928 294.55-74.928 294.55-74.928 301.11-74.912 304.92-70.928 304.92-70.928 304.92-70.928 304.92-70.928 304.92-70.928M340.43-28.768Q351.58-28.096 362.74-27.328 362.74-59.98400000000001 362.64-63.00800000000001 362.64-63.00800000000001 362.64-63.00800000000001 371.25-44.736000000000004 379.86-25.968000000000004 392.57-24.816000000000003 405.29-23.536 405.29-58.416 405.29-93.74400000000001 394.19-93.52000000000001 383.09-93.328 383.09-82.176 383.33-73.152 383.58-64.096 383.87-60.752 383.87-60.752 383.87-60.752 382.3-63.68 380.45-67.74400000000001 380.45-67.74400000000001 380.45-67.74400000000001 373.21-82.816 367.43-93.072 367.43-93.072 367.43-93.072 353.93-92.89600000000002 340.43-92.72000000000001 340.43-60.48 340.43-28.768 340.43-28.768 340.43-28.768M413.12-22.944000000000003Q439.43-19.840000000000003 465.75-16.32 465.75-26.192000000000004 465.75-36.064 451.22-37.44 436.7-38.752 436.7-66.416 436.7-94.43200000000002 424.91-94.16000000000001 413.12-93.904 413.12-58.208000000000006 413.12-22.944000000000003 413.12-22.944000000000003 413.12-22.944000000000003M500.77-10.864Q513-8.928 525.23-6.96 525.23-24.080000000000002 525.23-41.2 538.87-68.57600000000001 552.52-97.616 539.9-97.248 527.28-96.864 520.24-80.368 513.2-64.44800000000001 511.43-68.848 509.48-74.368 509.48-74.368 509.48-74.368 504.2-88.94400000000002 500.58-96.096 500.58-96.096 500.58-96.096 487.08-95.72800000000001 473.58-95.36000000000001 487.17-69.968 500.77-43.312000000000005 500.77-27.088 500.77-10.864 500.77-10.864 500.77-10.864" transform="translate(-3.9100000858306885, 99.38009643554688)"></path></g><g><path d="M69.75-23.456000000000003Q80.22-36.592000000000006 80.22-55.391999999999996 80.22-55.391999999999996 80.22-55.391999999999996 80.22-74.592 70.14-86.256 70.14-86.256 70.14-86.256 59.87-98.84800000000001 42.36-99.36000000000001 42.36-99.36000000000001 42.36-99.36000000000001 24.85-99.888 14.67-86.54400000000001 14.67-86.54400000000001 14.67-86.54400000000001 3.91-72.688 3.91-50.656000000000006 3.91-50.656000000000006 3.91-50.656000000000006 3.91-28.448000000000004 14.38-15.968000000000002 14.38-15.968000000000002 14.38-15.968000000000002 24.55-4.192 41.97-7.088 41.97-7.088 41.97-7.088 59.28-9.872 69.75-23.456000000000003 69.75-23.456000000000003 69.75-23.456000000000003 69.75-23.456000000000003 69.75-23.456000000000003M52.53-67.16799999999999Q56.35-62.720000000000006 56.35-54 56.35-54 56.35-54 56.35-45.968 52.53-40.368 52.53-40.368 52.53-40.368 48.33-34.608 42.16-33.968 42.16-33.968 42.16-33.968 36.39-33.36000000000001 31.89-38.44800000000001 31.89-38.44800000000001 31.89-38.44800000000001 27.98-43.088 27.98-52.224000000000004 27.98-52.224000000000004 27.98-52.224000000000004 27.98-61.504 31.89-66.512 31.89-66.512 31.89-66.512 36-72.288 42.16-72.4 42.16-72.4 42.16-72.4 48.72-72.54400000000001 52.53-67.16799999999999 52.53-67.16799999999999 52.53-67.16799999999999 52.53-67.16799999999999 52.53-67.16799999999999M153.88-32.448Q164.35-43.328 164.35-59.29600000000001 164.35-59.29600000000001 164.35-59.29600000000001 164.35-75.584 154.27-85.488 154.27-85.488 154.27-85.488 144-96.736 126.49-97.12 126.49-97.12 126.49-97.12 108.98-97.536 98.8-85.712 98.8-85.712 98.8-85.712 88.04-74.192 88.04-55.824000000000005 88.04-55.824000000000005 88.04-55.824000000000005 88.04-37.344 98.51-26.927999999999997 98.51-26.927999999999997 98.51-26.927999999999997 108.68-17.056 126.1-19.248 126.1-19.248 126.1-19.248 143.41-21.248 153.88-32.448 153.88-32.448 153.88-32.448 153.88-32.448 153.88-32.448M136.66-69.456Q140.47-65.69600000000001 140.47-58.367999999999995 140.47-58.367999999999995 140.47-58.367999999999995 140.47-51.616 136.66-46.976 136.66-46.976 136.66-46.976 132.46-42.19200000000001 126.29-41.728 126.29-41.728 126.29-41.728 120.52-41.28 116.02-45.568000000000005 116.02-45.568000000000005 116.02-45.568000000000005 112.11-49.456 112.11-57.088 112.11-57.088 112.11-57.088 112.11-64.816 116.02-68.976 116.02-68.976 116.02-68.976 120.13-73.792 126.29-73.872 126.29-73.872 126.29-73.872 132.85-73.968 136.66-69.456 136.66-69.456 136.66-69.456 136.66-69.456 136.66-69.456M238.01-37.136Q248.48-46.56 248.48-61.152 248.48-61.152 248.48-61.152 248.48-76.048 238.4-85.056 238.4-85.056 238.4-85.056 228.13-95.52000000000001 210.62-95.68 210.62-95.68 210.62-95.68 193.11-95.904 182.93-85.072 182.93-85.072 182.93-85.072 172.17-75.216 172.17-59.568 172.17-59.568 172.17-59.568 172.17-43.792 182.64-34.592000000000006 182.64-34.592000000000006 182.64-34.592000000000006 192.82-25.695999999999998 210.23-26.784 210.23-26.784 210.23-26.784 227.54-27.632 238.01-37.136 238.01-37.136 238.01-37.136 238.01-37.136 238.01-37.136M220.79-70.768Q224.61-67.376 224.61-60.848000000000006 224.61-60.848000000000006 224.61-60.848000000000006 224.61-54.848000000000006 220.79-50.816 220.79-50.816 220.79-50.816 216.59-46.72 210.42-46.512 210.42-46.512 210.42-46.512 204.65-46.304 200.15-50.176 200.15-50.176 200.15-50.176 196.24-53.648 196.24-60.256 196.24-60.256 196.24-60.256 196.24-66.976 200.15-70.54400000000001 200.15-70.54400000000001 200.15-70.54400000000001 204.26-74.704 210.42-74.752 210.42-74.752 210.42-74.752 216.98-74.784 220.79-70.768 220.79-70.768 220.79-70.768 220.79-70.768 220.79-70.768M322.14-36.784Q332.61-45.776 332.61-60.704 332.61-60.704 332.61-60.704 332.61-75.936 322.52-85.08800000000001 322.52-85.08800000000001 322.52-85.08800000000001 312.26-95.456 294.75-95.376 294.75-95.376 294.75-95.376 277.24-95.328 267.07-84.80000000000001 267.07-84.80000000000001 267.07-84.80000000000001 256.3-75.64800000000001 256.3-61.216 256.3-61.216 256.3-61.216 256.3-46.656000000000006 266.77-37.6 266.77-37.6 266.77-37.6 276.95-28.592000000000002 294.36-28.416000000000004 294.36-28.416000000000004 294.36-28.416000000000004 311.67-27.983999999999998 322.14-36.784 322.14-36.784 322.14-36.784 322.14-36.784 322.14-36.784M304.92-70.928Q308.74-67.52000000000001 308.74-61.072 308.74-61.072 308.74-61.072 308.74-55.120000000000005 304.92-51.29600000000001 304.92-51.29600000000001 304.92-51.29600000000001 300.72-47.456 294.55-47.536 294.55-47.536 294.55-47.536 288.77-47.6 284.27-51.504 284.27-51.504 284.27-51.504 280.37-54.96000000000001 280.37-61.264 280.37-61.264 280.37-61.264 280.37-67.64800000000001 284.27-70.992 284.27-70.992 284.27-70.992 288.39-74.944 294.55-74.928 294.55-74.928 294.55-74.928 301.11-74.912 304.92-70.928 304.92-70.928 304.92-70.928 304.92-70.928 304.92-70.928M340.43-28.768Q351.58-28.096 362.74-27.328 362.74-59.98400000000001 362.64-63.00800000000001 362.64-63.00800000000001 362.64-63.00800000000001 371.25-44.736000000000004 379.86-25.968000000000004 392.57-24.816000000000003 405.29-23.536 405.29-58.416 405.29-93.74400000000001 394.19-93.52000000000001 383.09-93.328 383.09-82.176 383.33-73.152 383.58-64.096 383.87-60.752 383.87-60.752 383.87-60.752 382.3-63.68 380.45-67.74400000000001 380.45-67.74400000000001 380.45-67.74400000000001 373.21-82.816 367.43-93.072 367.43-93.072 367.43-93.072 353.93-92.89600000000002 340.43-92.72000000000001 340.43-60.48 340.43-28.768 340.43-28.768 340.43-28.768M413.12-22.944000000000003Q439.43-19.840000000000003 465.75-16.32 465.75-26.192000000000004 465.75-36.064 451.22-37.44 436.7-38.752 436.7-66.416 436.7-94.43200000000002 424.91-94.16000000000001 413.12-93.904 413.12-58.208000000000006 413.12-22.944000000000003 413.12-22.944000000000003 413.12-22.944000000000003M500.77-10.864Q513-8.928 525.23-6.96 525.23-24.080000000000002 525.23-41.2 538.87-68.57600000000001 552.52-97.616 539.9-97.248 527.28-96.864 520.24-80.368 513.2-64.44800000000001 511.43-68.848 509.48-74.368 509.48-74.368 509.48-74.368 504.2-88.94400000000002 500.58-96.096 500.58-96.096 500.58-96.096 487.08-95.72800000000001 473.58-95.36000000000001 487.17-69.968 500.77-43.312000000000005 500.77-27.088 500.77-10.864 500.77-10.864 500.77-10.864" transform="translate(-3.9100000858306885, 99.38009643554688)"></path></g><defs><linearGradient id="text-effect-reflect-s4c2QFyukhZMoY8ud1qVZ" y2="1" x2="0"><stop offset="0" stop-color="#00FF00" stop-opacity="0.5"></stop><stop offset="0.5" stop-color="#00FF00" stop-opacity="0"></stop></linearGradient><linearGradient id="text-effect-reflect-E7IPlF4iiKuaN9WJkA1CR" y2="1" x2="0"><stop offset="0.5" stop-color="#00FF00" stop-opacity="0"></stop><stop offset="1" stop-color="#00FF00" stop-opacity="0.5"></stop></linearGradient></defs></g></g></g> <!----></g><defs v-gra="od"></defs></svg>
